<svg t="1768019480169" class="icon" viewBox="0 0 1024 1024" version="1.1" xmlns="http://www.w3.org/2000/svg" p-id="6948" width="24" height="24"><path d="M531.000889 859.591111a80.099556 80.099556 0 0 1-31.857778-7.054222l-2.161778-0.967111-191.544889-122.88H216.007111a128.170667 128.170667 0 0 1-128.796444-128.341334V403.171556A128.341333 128.341333 0 0 1 216.007111 274.773333h89.372445l191.544888-123.050666 2.275556-0.967111c23.210667-10.012444 46.762667-8.988444 64.682667 2.787555 16.896 11.093333 26.567111 30.378667 26.567111 52.963556v590.336c0 22.755556-9.671111 42.097778-26.567111 53.191111-9.784889 6.314667-21.219556 9.671111-32.881778 9.500444z m-6.030222-61.269333a19.342222 19.342222 0 0 0 5.347555 1.251555 15.644444 15.644444 0 0 0 0.227556-2.730666V206.563556a14.449778 14.449778 0 0 0-0.227556-2.616889 18.318222 18.318222 0 0 0-5.347555 1.137777l-201.955556 129.706667H216.007111a68.664889 68.664889 0 0 0-63.658667 42.154667c-3.413333 8.305778-5.176889 17.237333-5.12 26.225778v197.176888a68.266667 68.266667 0 0 0 68.778667 68.380445h106.951111l202.012445 129.592889z m272.042666 59.960889a29.923556 29.923556 0 0 1-21.219555-8.817778L648.760889 722.488889a29.980444 29.980444 0 1 1 42.439111-42.496l126.976 127.032889a29.980444 29.980444 0 0 1-21.162667 51.2z m-127.032889-528.042667a29.980444 29.980444 0 0 1-21.219555-51.2l127.032889-126.976a29.980444 29.980444 0 0 1 42.439111 42.382222L691.2 321.479111a29.923556 29.923556 0 0 1-21.219556 8.760889z m228.010667 201.500444h-193.308444a29.980444 29.980444 0 0 1 0-60.017777h193.308444a29.980444 29.980444 0 1 1 0 60.017777z" fill="#23488A" p-id="6949"></path></svg>
