<svg style="display: none;">
  <!-- 用户图标 -->
  <symbol id="icon-user" viewBox="0 0 24 24">
    <path d="M20 21v-2a4 4 0 0 0-4-4H8a4 4 0 0 0-4 4v2"/>
    <circle cx="12" cy="7" r="4"/>
  </symbol>

  <!-- 锁定图标 -->
  <symbol id="icon-lock" viewBox="0 0 24 24">
    <rect x="3" y="11" width="18" height="11" rx="2" ry="2"/>
    <path d="M7 11V7a5 5 0 0 1 10 0v4"/>
  </symbol>

  <!-- 机构图标 -->
  <symbol id="icon-hospital" viewBox="0 0 24 24">
    <path d="M3 21h18"/>
    <path d="M5 21V7l8-4v18"/>
    <path d="M19 21V11l-6-4"/>
    <path d="M9 9h1"/>
    <path d="M9 13h1"/>
    <path d="M9 17h1"/>
  </symbol>

  <!-- 诊室图标 -->
  <symbol id="icon-medicine" viewBox="0 0 24 24">
    <path d="M3 3h18v18H3z"/>
    <path d="M9 12h6"/>
    <path d="M12 9v6"/>
  </symbol>

  <!-- 登出图标 -->
  <symbol id="icon-logout" viewBox="0 0 24 24">
    <path d="M9 21H5a2 2 0 0 1-2-2V5a2 2 0 0 1 2-2h4"/>
    <polyline points="16 17 21 12 16 7"/>
    <line x1="21" y1="12" x2="9" y2="12"/>
  </symbol>

  <!-- 电话图标 -->
  <symbol id="icon-phone" viewBox="0 0 24 24">
    <path d="M22 16.92v3a2 2 0 0 1-2.18 2 19.79 19.79 0 0 1-8.63-3.07 19.5 19.5 0 0 1-6-6 19.79 19.79 0 0 1-3.07-8.67A2 2 0 0 1 4.11 2h3a2 2 0 0 1 2 1.72 12.84 12.84 0 0 0 .7 2.81 2 2 0 0 1-.45 2.11L8.09 9.91a16 16 0 0 0 6 6l1.27-1.27a2 2 0 0 1 2.11-.45 12.84 12.84 0 0 0 2.81.7A2 2 0 0 1 22 16.92z"/>
  </symbol>

  <!-- 铃铛图标 -->
  <symbol id="icon-bell" viewBox="0 0 24 24">
    <path d="M18 8A6 6 0 0 0 6 8c0 7-3 9-3 9h18s-3-2-3-9"/>
    <path d="M13.73 21a2 2 0 0 1-3.46 0"/>
  </symbol>

  <!-- 菜单图标 -->
  <symbol id="icon-menu" viewBox="0 0 24 24">
    <line x1="3" y1="12" x2="21" y2="12"/>
    <line x1="3" y1="6" x2="21" y2="6"/>
    <line x1="3" y1="18" x2="21" y2="18"/>
  </symbol>

  <!-- 右箭头图标 -->
  <symbol id="icon-chevron-right" viewBox="0 0 24 24">
    <polyline points="9 18 15 12 9 6"/>
  </symbol>

  <!-- 左箭头图标 -->
  <symbol id="icon-chevron-left" viewBox="0 0 24 24">
    <polyline points="15 18 9 12 15 6"/>
  </symbol>

  <!-- 刷新图标 -->
  <symbol id="icon-refresh" viewBox="0 0 24 24">
    <polyline points="23 4 23 10 17 10"/>
    <polyline points="1 20 1 14 7 14"/>
    <path d="M3.51 9a9 9 0 0 1 14.85-3.36L23 10M1 14l4.64 4.36A9 9 0 0 0 20.49 15"/>
  </symbol>

  <!-- 关闭图标 -->
  <symbol id="icon-close" viewBox="0 0 24 24">
    <line x1="18" y1="6" x2="6" y2="18"/>
    <line x1="6" y1="6" x2="18" y2="18"/>
  </symbol>
</svg>
